<svg width="18" height="18" viewBox="0 0 18 18" fill="none" xmlns="http://www.w3.org/2000/svg">
<path d="M4.75181 1.61051L2.93376 1.81252C2.00406 1.91582 1.28865 2.65635 1.42635 3.58157C1.69689 5.39937 2.67768 8.56118 6.05759 11.9411C9.43744 15.3209 12.5996 16.3022 14.4177 16.573C15.3431 16.7109 16.0839 15.9954 16.1872 15.0655L16.3892 13.2479C16.4772 12.4552 16.086 11.686 15.3935 11.2904L14.19 10.6029C13.4087 10.1566 12.4254 10.2883 11.7892 10.9246C11.3174 11.3963 10.6355 11.5954 10.0466 11.282C9.53744 11.011 8.8728 10.566 8.15323 9.84646C7.43366 9.12689 6.98869 8.46224 6.71771 7.95311C6.40424 7.36414 6.60336 6.68228 7.07513 6.21051C7.71136 5.57428 7.84311 4.59096 7.39679 3.80969L6.70928 2.60621C6.31368 1.91371 5.54447 1.52244 4.75181 1.61051Z" stroke="white" stroke-width="1.5" stroke-linecap="round" stroke-linejoin="round"/>
</svg>
