<svg width="110" height="25" viewBox="0 0 110 25" fill="none" xmlns="http://www.w3.org/2000/svg">
<path d="M37.836 4.27002H39.6533L34.4199 19.3783H32.7515L27.5479 4.27002H29.3354L32.6721 14.046C33.0561 15.1689 33.3606 16.2609 33.5857 17.3219C33.824 16.2058 34.1352 15.0932 34.5192 13.984L37.836 4.27002Z" fill="#929395"/>
<path d="M52.1933 19.3783H44.0999V4.27002H52.1933V5.83045H45.7881V10.6978H51.806V12.2479H45.7881V17.8076H52.1933V19.3783Z" fill="#929395"/>
<path d="M59.5496 13.0953V19.3783H57.8614V4.27002H61.8435C63.6244 4.27002 64.9386 4.62482 65.786 5.33442C66.6401 6.04402 67.0671 7.11187 67.0671 8.53796C67.0671 10.5359 66.0939 11.8862 64.1475 12.5889L68.0899 19.3783H66.0939L62.5784 13.0953H59.5496ZM59.5496 11.5865H61.8634C63.0551 11.5865 63.929 11.3419 64.4851 10.8528C65.0412 10.3567 65.3193 9.61614 65.3193 8.63097C65.3193 7.63201 65.0346 6.91208 64.4652 6.47116C63.9025 6.03024 62.9955 5.80978 61.7442 5.80978H59.5496V11.5865Z" fill="#929395"/>
<path d="M77.3429 19.3783H75.6547V5.83045H71.0568V4.27002H81.9408V5.83045H77.3429V19.3783Z" fill="#929395"/>
<path d="M94.6695 19.3783H86.576V4.27002H94.6695V5.83045H88.2642V10.6978H94.2822V12.2479H88.2642V17.8076H94.6695V19.3783Z" fill="#929395"/>
<path d="M110 19.3783H108.083L104.181 12.7336L100.208 19.3783H98.4209L103.247 11.4831L98.7486 4.27002H100.616L104.22 10.2534L107.855 4.27002H109.652L105.154 11.4211L110 19.3783Z" fill="#929395"/>
<path d="M16.7777 11.9326L19.6155 10.119L16.6417 5.16499L13.8705 0L8.27759 10.0807L11.3599 11.9326L13.8705 7.40741L16.7777 11.9326Z" fill="#E71B20"/>
<path d="M16.3619 24.9999H27.7408L21.7007 14.0751L19.0655 16.0565L21.5762 21.2962H16.3619V24.9999Z" fill="#8E9396"/>
<path d="M0 24.9999H11.7859V21.2962H6.16464L9.07174 16.0565L5.98944 14.2046L0 24.9999Z" fill="#8E9396"/>
</svg>
