<svg width="20" height="17" viewBox="0 0 20 17" fill="none" xmlns="http://www.w3.org/2000/svg">
<path d="M19.5561 9.38662C19.5378 9.69013 19.3399 9.95286 19.0537 10.0552L1.53291 16.2906C1.23912 16.3952 0.911362 16.3093 0.706696 16.0741C0.501806 15.8389 0.46183 15.5026 0.605897 15.2259L4.14305 8.42762L1.43923 1.2882C1.32859 0.99626 1.40839 0.666126 1.64006 0.456865C1.66952 0.430322 1.70088 0.406194 1.73345 0.384889C1.95665 0.238876 2.24371 0.219634 2.48724 0.341591L19.1384 8.66205C19.41 8.79797 19.5746 9.08331 19.5561 9.38662ZM3.54467 2.56538L5.50786 7.74929L8.69731 7.94123C9.11543 7.96617 9.43386 8.32552 9.40868 8.74375C9.38365 9.16221 9.02413 9.47989 8.60616 9.45513L5.41815 9.26348L2.8419 14.2144L16.8674 9.22299L3.54467 2.56538Z" fill="#ffffff"/>
</svg>
